<svg width="100" height="100" viewBox="0 0 100 100" fill="none" xmlns="http://www.w3.org/2000/svg">
<path d="M34.1877 30.2302C31.1684 30.2302 29.1942 32.2129 29.1942 34.8188C29.1942 37.3672 31.1096 39.4065 34.0719 39.4065H34.1292C37.2076 39.4065 39.1234 37.3672 39.1234 34.8188C39.0659 32.2129 37.2076 30.2302 34.1877 30.2302Z" fill="white"/>
<path d="M29.716 43.0325H38.5429V69.5886H29.716V43.0325Z" fill="white"/>
<path d="M60.2088 42.4092C55.447 42.4092 52.254 46.8837 52.254 46.8837V43.0325H43.4268V69.5886H52.2535V54.7586C52.2535 53.9647 52.311 53.172 52.5442 52.6043C53.1824 51.0189 54.6345 49.3766 57.0731 49.3766C60.2671 49.3766 61.5446 51.8119 61.5446 55.3819V69.5886H70.3707V54.3618C70.3707 46.2049 66.0158 42.4092 60.2088 42.4092Z" fill="white"/>
</svg>
