<svg width="170" height="71" viewBox="0 0 170 71" fill="none" xmlns="http://www.w3.org/2000/svg">
<path d="M10.584 0H6.75L0 38.232H21.708L22.248 34.83H4.374L10.584 0Z" fill="white"/>
<path d="M43.3181 38.88C52.1201 38.88 58.3301 31.86 58.3301 23.22C58.3301 16.74 53.5241 12.312 46.6661 12.312C37.9181 12.312 31.6541 19.44 31.6541 27.918C31.6541 34.398 36.5141 38.88 43.3181 38.88ZM54.5501 23.436C54.5501 30.132 49.9601 35.802 43.5341 35.802C38.5121 35.802 35.4881 32.346 35.4881 27.702C35.4881 21.06 40.1321 15.336 46.4501 15.336C51.5261 15.336 54.5501 18.846 54.5501 23.436Z" fill="white"/>
<path d="M72.7861 18.522L69.3301 38.232H72.9481L75.2161 25.272C76.4041 18.522 80.1301 15.714 84.0181 15.714C84.9901 15.714 86.1241 15.876 86.5021 16.038L87.3661 12.582C86.6101 12.366 85.9081 12.312 84.9901 12.312C81.4261 12.312 78.4021 14.364 76.5661 17.28H76.4581C76.6741 16.2 76.8901 14.31 77.0521 12.96H73.5961C73.4341 14.688 73.0561 17.172 72.7861 18.522Z" fill="white"/>
<path d="M117.441 26.568C117.819 25.11 117.927 23.058 117.927 22.194C117.927 16.362 114.255 12.312 107.397 12.312C99.1887 12.312 92.7627 19.548 92.7627 27.756C92.7627 34.83 97.7847 38.88 104.265 38.88C108.639 38.88 112.689 37.044 115.605 33.534L113.337 31.374C111.555 33.75 108.531 35.802 104.589 35.802C99.9987 35.802 96.4347 32.454 96.4347 27.756C96.4347 27.378 96.4887 27 96.5427 26.568H117.441ZM97.0287 23.868C98.1087 19.278 101.943 15.336 107.289 15.336C111.879 15.336 114.309 18.09 114.309 21.978C114.309 22.518 114.255 23.328 114.201 23.868H97.0287Z" fill="white"/>
<path d="M160.825 12.312C156.991 12.312 153.859 14.256 151.915 17.658C151.051 13.338 147.595 12.312 144.841 12.312C141.223 12.312 138.145 14.202 136.093 17.28H135.985C136.201 16.2 136.417 14.31 136.579 12.96H133.123C132.961 14.688 132.583 17.172 132.313 18.522L128.857 38.232H132.475L134.743 25.272C135.931 18.522 140.197 15.336 143.707 15.336C147.433 15.336 148.729 17.226 148.729 20.25C148.729 21.222 148.621 22.356 148.405 23.544L145.759 38.232H149.377L151.753 24.786C152.563 20.088 154.723 15.336 160.069 15.336C164.227 15.336 165.685 17.55 165.685 21.06C165.685 22.032 165.577 23.112 165.361 24.246L162.877 38.232H166.495L169.249 22.734C169.411 21.762 169.519 20.898 169.519 20.034C169.519 15.282 166.279 12.312 160.825 12.312Z" fill="white"/>
<path d="M65.364 38.16H62.95L58.7 62.232H61.114L65.364 38.16Z" fill="white"/>
<path d="M75.59 48.904H75.522L75.998 46.32H73.72L69.436 70.392H71.714L73.652 59.546H73.72C74.74 61.552 76.984 62.64 79.262 62.64C84.634 62.64 88.612 58.22 88.612 52.78C88.612 48.7 85.756 45.912 81.438 45.912C78.888 45.912 76.61 47.306 75.59 48.904ZM86.232 52.916C86.232 57.234 83.478 60.702 79.296 60.702C76.168 60.702 74.162 58.56 74.162 55.568C74.162 51.352 77.256 47.816 81.234 47.816C84.464 47.816 86.232 50.06 86.232 52.916Z" fill="white"/>
<path d="M108.16 48.53C107.31 46.966 105.236 45.912 102.788 45.912C99.9316 45.912 96.6676 47.306 96.6676 50.57C96.6676 53.222 98.7756 54.174 100.68 54.786C103.196 55.602 104.556 56.282 104.556 57.982C104.556 59.92 102.55 60.702 100.578 60.702C98.5716 60.702 96.9056 59.614 96.1576 58.322L94.1856 59.614C95.5116 61.654 98.0276 62.64 100.68 62.64C103.468 62.64 106.834 61.212 106.834 57.744C106.834 55.228 105.134 53.97 102.04 53.086C100.068 52.508 98.8776 52.1 98.8776 50.4C98.8776 48.496 101.02 47.816 102.652 47.816C104.42 47.816 105.746 48.632 106.358 49.822L108.16 48.53Z" fill="white"/>
<path d="M127.415 62.232C127.517 61.144 127.755 59.58 127.925 58.73L130.101 46.32H127.823L126.395 54.48C125.647 58.73 122.995 60.702 120.547 60.702C117.929 60.702 117.011 59.342 117.011 57.132C117.011 56.52 117.079 55.84 117.215 55.126L118.779 46.32H116.501L114.767 56.078C114.665 56.69 114.597 57.234 114.597 57.778C114.597 60.77 116.637 62.64 120.071 62.64C122.213 62.64 124.287 61.45 125.511 59.512H125.579C125.443 60.192 125.307 61.382 125.205 62.232H127.415Z" fill="white"/>
<path d="M157.204 45.912C154.79 45.912 152.818 47.136 151.594 49.278C151.05 46.558 148.874 45.912 147.14 45.912C144.862 45.912 142.924 47.102 141.632 49.04H141.564C141.7 48.36 141.836 47.17 141.938 46.32H139.762C139.66 47.408 139.422 48.972 139.252 49.822L137.076 62.232H139.354L140.782 54.072C141.53 49.822 144.216 47.816 146.426 47.816C148.772 47.816 149.588 49.006 149.588 50.91C149.588 51.522 149.52 52.236 149.384 52.984L147.718 62.232H149.996L151.492 53.766C152.002 50.808 153.362 47.816 156.728 47.816C159.346 47.816 160.264 49.21 160.264 51.42C160.264 52.032 160.196 52.712 160.06 53.426L158.496 62.232H160.774L162.508 52.474C162.61 51.862 162.678 51.318 162.678 50.774C162.678 47.782 160.638 45.912 157.204 45.912Z" fill="white"/>
</svg>
