<svg width="100" height="100" viewBox="0 0 100 100" fill="none" xmlns="http://www.w3.org/2000/svg">
<path d="M69.5792 39.6689C69.1052 37.9049 67.7159 36.5143 65.9539 36.0393C62.7351 35.1577 49.8595 35.1577 49.8595 35.1577C49.8595 35.1577 36.9844 35.1577 33.7656 36.0059C32.0375 36.4804 30.6143 37.9052 30.1403 39.6689C29.2932 42.8909 29.2932 49.5727 29.2932 49.5727C29.2932 49.5727 29.2932 56.2883 30.1403 59.4766C30.6148 61.2403 32.0037 62.6309 33.7658 63.1059C37.0183 63.9878 49.86 63.9878 49.86 63.9878C49.86 63.9878 62.7351 63.9878 65.9539 63.1396C67.7161 62.6648 69.1052 61.2743 69.5797 59.5105C70.4266 56.2883 70.4266 49.6067 70.4266 49.6067C70.4266 49.6067 70.4604 42.8909 69.5792 39.6689ZM45.7602 55.7457V43.3998L56.4669 49.5727L45.7602 55.7457Z" fill="white"/>
</svg>
