<svg width="100" height="100" viewBox="0 0 100 100" fill="none" xmlns="http://www.w3.org/2000/svg">
<path d="M69.6007 39.6689C69.1262 37.9049 67.7354 36.5143 65.9716 36.0393C62.7494 35.1577 49.8604 35.1577 49.8604 35.1577C49.8604 35.1577 36.9719 35.1577 33.7497 36.0059C32.0199 36.4804 30.5951 37.9052 30.1206 39.6689C29.2727 42.8909 29.2727 49.5727 29.2727 49.5727C29.2727 49.5727 29.2727 56.2883 30.1206 59.4766C30.5956 61.2403 31.9859 62.6309 33.75 63.1059C37.0058 63.9878 49.8609 63.9878 49.8609 63.9878C49.8609 63.9878 62.7494 63.9878 65.9716 63.1396C67.7356 62.6648 69.1262 61.2743 69.6012 59.5105C70.4489 56.2883 70.4489 49.6067 70.4489 49.6067C70.4489 49.6067 70.4828 42.8909 69.6007 39.6689ZM45.7568 55.7457V43.3998L56.4747 49.5727L45.7568 55.7457Z" fill="#AC5A5A"/>
<circle cx="50" cy="50" r="35.5" stroke="#AC5A5A" stroke-width="3"/>
</svg>
