<svg width="100" height="100" viewBox="0 0 100 100" fill="none" xmlns="http://www.w3.org/2000/svg">
<path d="M68.2546 29.3511H31.622C30.3677 29.3518 29.3509 30.3692 29.3511 31.624V68.2566C29.3519 69.511 30.3692 70.5278 31.6241 70.5275H51.3467V54.6038H45.9986V48.3711H51.3467V43.7842C51.3467 38.465 54.5941 35.5698 59.339 35.5698C61.6117 35.5698 63.5647 35.7392 64.134 35.8148V41.3743H60.862C58.2804 41.3743 57.7806 42.601 57.7806 44.4014V48.3711H63.953L63.1488 54.6038H57.7806V70.5275H68.2546C69.5097 70.5278 70.5273 69.5107 70.5276 68.2556C70.5276 68.2554 70.5276 68.2551 70.5276 68.2546V31.622C70.5271 30.3677 69.5095 29.3508 68.2546 29.3511Z" fill="#AC5A5A"/>
<circle cx="50" cy="50" r="35.5" stroke="#AC5A5A" stroke-width="3"/>
</svg>
