<svg width="42" height="29" viewBox="0 0 42 29" fill="none" xmlns="http://www.w3.org/2000/svg">
<path d="M40.6007 4.66893C40.1262 2.90491 38.7354 1.51435 36.9716 1.03935C33.7494 0.157715 20.8604 0.157715 20.8604 0.157715C20.8604 0.157715 7.9719 0.157715 4.74971 1.00592C3.01987 1.48042 1.59513 2.90516 1.12063 4.66893C0.272675 7.89087 0.272675 14.5727 0.272675 14.5727C0.272675 14.5727 0.272675 21.2883 1.12063 24.4766C1.59563 26.2403 2.98594 27.6309 4.74996 28.1059C8.00583 28.9878 20.8609 28.9878 20.8609 28.9878C20.8609 28.9878 33.7494 28.9878 36.9716 28.1396C38.7356 27.6648 40.1262 26.2743 40.6012 24.5105C41.4489 21.2883 41.4489 14.6067 41.4489 14.6067C41.4489 14.6067 41.4828 7.89087 40.6007 4.66893ZM16.7568 20.7457V8.3998L27.4747 14.5727L16.7568 20.7457Z" fill="white"/>
</svg>
